<svg width="387" height="28" viewBox="0 0 387 28" fill="none" xmlns="http://www.w3.org/2000/svg">
<path d="M177.731 22.7684C177.731 24.3895 177.288 25.2368 176.441 25.2368C175.704 25.2368 175.299 24.6105 175.299 23.4684V14.0368C175.299 10.4632 173.457 8.76842 169.478 8.76842C167.015 8.76842 165.148 9.40616 163.732 10.7579H163.602L163.915 8.47368H160.71V14.6632H163.067C163.988 12.4158 165.388 11.3474 167.378 11.3474C169.257 11.3474 170.141 12.3053 170.141 14.2579V17.2421H169.146C161.631 17.2421 159.236 18.5684 159.236 22.6211C159.236 26.0842 161.004 28 164.136 28C166.639 28 169.113 26.7982 170.465 24.9789H170.687C171.878 27.0966 173.272 28 175.336 28C178.21 28 179.941 26.2316 179.941 23.2842V20.4105H177.731V22.7684ZM167.083 24.7579C165.352 24.7579 164.467 23.6895 164.467 21.6263C164.467 19.0842 165.794 19.3053 168.446 19.3053H170.141V21.0368C170.141 23.3947 169.036 24.7579 167.083 24.7579ZM191.62 18.9368H193.831V22.3632C193.831 25.8263 191.583 28 188.046 28C184.694 28 182.631 26.0474 182.631 22.9895V11.5684H179.941V9.65263C183.588 8.06842 185.504 5.71053 186.094 1.84211H187.788V9.21053H192.946V11.5684H187.788V22.9526C187.788 24.2053 188.231 24.7211 189.299 24.7211C190.773 24.7211 191.62 23.6895 191.62 21.8474V18.9368ZM204.22 25.4211H205.104V27.6316H195.525V25.4211H196.41C197.441 25.4211 197.736 24.9421 197.736 23.2105V2.87368H195.525V0.515789C198.804 0.515789 200.536 0.405263 202.673 0L202.894 0.147368V23.2105C202.894 24.9421 203.188 25.4211 204.22 25.4211ZM225.22 20.4105V22.7684C225.22 24.3895 224.778 25.2368 223.931 25.2368C223.194 25.2368 222.788 24.6105 222.788 23.4684V14.0368C222.788 10.4632 220.946 8.76842 216.967 8.76842C214.504 8.76842 212.637 9.40616 211.222 10.7579H211.092L211.405 8.47368H208.199V14.6632H210.557C211.478 12.4158 212.878 11.3474 214.868 11.3474C216.747 11.3474 217.631 12.3053 217.631 14.2579V17.2421H216.636C209.12 17.2421 206.726 18.5684 206.726 22.6211C206.726 26.0842 208.494 28 211.626 28C214.128 28 216.603 26.7982 217.955 24.9789H218.177C219.368 27.0966 220.761 28 222.826 28C225.699 28 227.431 26.2316 227.431 23.2842V20.4105H225.22ZM214.573 24.7579C212.841 24.7579 211.957 23.6895 211.957 21.6263C211.957 19.0842 213.283 19.3053 215.936 19.3053H217.631V21.0368C217.631 23.3947 216.525 24.7579 214.573 24.7579Z" fill="#222222"/>
</svg>
