<svg width="40" height="20" viewBox="0 0 40 20" fill="none" xmlns="http://www.w3.org/2000/svg">
<rect width="20" height="20" fill="#FAFAFA"/>
<path d="M9.99992 11.8606C10.5167 11.8606 10.956 11.6797 11.3177 11.318C11.6795 10.9562 11.8604 10.517 11.8604 10.0002C11.8604 9.48337 11.6795 9.04409 11.3177 8.68233C10.956 8.32058 10.5167 8.1397 9.99992 8.1397C9.48312 8.1397 9.04385 8.32058 8.68209 8.68233C8.32033 9.04409 8.13945 9.48337 8.13945 10.0002C8.13945 10.517 8.32033 10.9562 8.68209 11.318C9.04385 11.6797 9.48312 11.8606 9.99992 11.8606ZM9.99992 12.7909C9.22555 12.7909 8.56684 12.5193 8.0238 11.9763C7.48075 11.4332 7.20922 10.7745 7.20922 10.0002C7.20922 9.2258 7.48075 8.56709 8.0238 8.02404C8.56684 7.48099 9.22555 7.20946 9.99992 7.20946C10.7743 7.20946 11.433 7.48099 11.976 8.02404C12.5191 8.56709 12.7906 9.2258 12.7906 10.0002C12.7906 10.7745 12.5191 11.4332 11.976 11.9763C11.433 12.5193 10.7743 12.7909 9.99992 12.7909ZM5.65883 10.4653H3.33325V9.53505H5.65883V10.4653ZM16.6666 10.4653H14.341V9.53505H16.6666V10.4653ZM9.5348 5.65908V3.3335H10.465V5.65908H9.5348ZM9.5348 16.6668V14.3412H10.465V16.6668H9.5348ZM6.63434 7.25722L5.18178 5.85474L5.83899 5.16652L7.2379 6.60357L6.63434 7.25722ZM14.1609 14.8338L12.7525 13.3871L13.3655 12.7431L14.8181 14.1456L14.1609 14.8338ZM12.7429 6.63458L14.1453 5.18202L14.8336 5.83923L13.3965 7.23815L12.7429 6.63458ZM5.16628 14.1611L6.61294 12.7527L7.24504 13.3657L5.84845 14.8242L5.16628 14.1611Z" fill="#222222"/>
<rect width="20" height="20" transform="translate(20)" fill="#222222"/>
<path d="M30.018 15.2565C28.5538 15.2565 27.3092 14.744 26.2842 13.719C25.2593 12.6941 24.7468 11.4495 24.7468 9.9852C24.7468 8.5819 25.2228 7.37838 26.1749 6.37466C27.1269 5.37084 28.2927 4.82717 29.6721 4.74365C29.7612 4.74365 29.8487 4.74686 29.9346 4.75326C30.0204 4.75967 30.1046 4.76923 30.1873 4.78195C29.8709 5.07766 29.6189 5.43502 29.4313 5.85404C29.2436 6.27306 29.1498 6.71988 29.1498 7.19451C29.1498 8.21084 29.5055 9.07476 30.2171 9.78629C30.9285 10.4977 31.7924 10.8534 32.8087 10.8534C33.2897 10.8534 33.7381 10.7596 34.154 10.572C34.5698 10.3843 34.9236 10.1323 35.2154 9.8159C35.2281 9.89859 35.2376 9.98288 35.244 10.0688C35.2503 10.1546 35.2535 10.242 35.2535 10.3311C35.174 11.7105 34.6324 12.8763 33.6287 13.8283C32.6249 14.7804 31.4213 15.2565 30.018 15.2565ZM30.018 14.3263C30.9276 14.3263 31.7441 14.0756 32.4676 13.5744C33.1911 13.0731 33.7182 12.4193 34.049 11.6131C33.8423 11.6648 33.6356 11.7061 33.4288 11.7371C33.2221 11.7681 33.0154 11.7837 32.8087 11.7837C31.5374 11.7837 30.4547 11.3366 29.5606 10.4426C28.6666 9.54851 28.2195 8.46582 28.2195 7.19451C28.2195 6.98779 28.235 6.78107 28.2661 6.57435C28.2971 6.36763 28.3384 6.16091 28.3901 5.9542C27.5839 6.28494 26.9301 6.81208 26.4288 7.53559C25.9275 8.2591 25.6769 9.07564 25.6769 9.9852C25.6769 11.1842 26.1007 12.2074 26.9482 13.055C27.7958 13.9025 28.819 14.3263 30.018 14.3263Z" fill="#FAFAFA"/>
</svg>
